<svg width="75" height="64" viewBox="0 0 75 64" fill="none" xmlns="http://www.w3.org/2000/svg">
<path d="M72.4702 3.48192C60.7237 -0.0166948 45.3886 -0.201933 33.5987 3.78248C26.5592 -1.9743 18.8088 0.191608 15.9053 1.56467C15.9053 1.56467 21.6689 5.74369 17.5771 15.2233C16.8347 16.943 14.9554 19.4282 14.6765 22.663C1.45912 28.355 0 31.8781 0 31.8781C7.28087 30.061 15.402 28.7009 15.402 28.7009C17.4697 35.0603 22.5284 37.9628 22.6969 38.3657C25.1802 44.2991 24.8867 43.6936 24.9624 43.5567C26.71 40.3659 26.4951 40.6635 26.6313 40.7349C27.4186 41.1472 27.8939 41.3721 28.1824 41.5032C28.2272 54.6825 36.9864 64.0222 36.9886 64.0006C37.4977 57.7357 38.0695 49.0237 41.4049 43.1538C44.2363 38.3758 52.1345 33.2158 53.5377 32.4381C54.5384 31.8838 55.4494 32.2759 55.4825 32.286C56.2308 32.5289 56.0976 32.5181 56.2065 32.4194C60.8672 28.1697 64.5455 26.2135 64.5455 26.2135C56.6554 25.6074 52.1993 26.2835 50.8741 26.5408C50.8299 25.3126 50.5812 23.9136 50.0183 22.3452C67.5233 17.0396 64.1378 13.6008 63.5367 13.1179C67.5351 12.4822 71.3356 10.211 73.688 7.46201C74.8586 6.09111 74.2148 4.0016 72.4709 3.48192H72.4702ZM32.0226 33.1589C31.3464 29.39 34.592 27.0828 34.592 27.0828C38.1431 27.2832 40.3203 28.5503 40.8567 28.8963C37.9422 29.8751 34.7539 31.2539 32.0226 33.1596V33.1589Z" fill="white"/>
<path d="M14.728 22.6199C14.7302 22.6033 14.7295 22.6112 14.728 22.6199V22.6199Z" fill="white"/>
<path d="M24.8469 19.7902C25.7777 18.0199 27.2405 16.0674 28.4222 14.69C27.8887 15.854 27.1043 17.8073 26.6702 19.5617C26.0889 19.6186 25.4797 19.695 24.8469 19.7909V19.7902ZM29.5031 19.4312C29.7658 17.2732 30.712 14.6986 31.6244 12.8636C30.2455 14.4766 28.4347 17.0383 27.537 19.4874C28.2485 19.4377 28.9078 19.4197 29.5038 19.4312H29.5031ZM72.5511 6.53088C71.1574 8.16271 67.6748 11.1604 62.7581 11.7572L61.3454 13.1612C62.0988 13.6687 62.4403 14.1811 62.4138 14.3945C62.2195 15.9643 61.3027 17.4448 47.7431 21.1337C50.1985 24.7656 50.3155 29.2481 48.5834 33.1366L48.5879 33.1475C48.5879 33.1475 50.5429 31.3744 50.8431 27.8599C54.3485 27.3402 57.7068 27.1564 60.4889 27.2905C58.7104 28.3781 56.3757 30.5267 55.9033 30.9678C55.8503 31.0176 55.7745 31.0334 55.7039 31.0133C54.7267 30.7322 53.6591 30.8828 52.7754 31.4263C42.9898 37.4483 40.2231 42.6573 40.2231 42.6573C36.6022 48.6296 35.9024 60.4567 35.9024 60.4567C31.7392 54.826 29.3456 47.8821 29.5082 40.6917C28.2375 40.1303 27.0852 39.5428 26.0411 38.9374L25.0823 40.6874L23.7247 37.444C18.85 33.9439 17.0281 30.0727 16.3122 27.1384C11.5029 27.9781 6.28524 29.4225 2.61133 30.4424C5.62007 27.4245 19.7536 21.1776 32.851 20.3185C32.5957 19.9069 31.8415 19.633 30.7223 19.5076C30.5972 19.4939 30.467 19.4809 30.3331 19.4709C30.9776 16.4443 32.9849 13.2009 34.8267 11.0386C33.759 13.0582 32.5317 16.4004 32.4772 19.0723C32.7892 18.9678 33.0968 18.8669 33.4014 18.7688C33.929 15.2731 35.8701 11.7536 38.0289 9.21287C36.6324 11.7291 35.5029 15.0835 35.5529 18.11C44.5401 15.503 49.1868 15.8915 49.203 15.8894C53.6576 17.6033 59.3587 16.0775 60.4219 14.5848C58.8664 14.3959 55.2403 13.3083 54.4824 12.7072C54.6782 12.7533 55.1072 12.8362 55.6384 12.9537L55.2146 11.5784L54.0248 12.4902L53.5509 11.2173L52.6223 11.8675C52.2382 11.6455 51.8659 11.4004 51.6658 11.2166C51.0227 11.2368 48.7924 12.0671 48.7924 12.0671C55.3404 7.41094 54.6914 9.89616 60.6383 10.1787C62.1665 10.2515 63.8751 10.1535 65.5469 9.54586C67.2716 8.91951 68.6424 8.02143 69.4871 7.0484C69.8072 6.67936 69.6336 6.11212 69.1568 5.9831C53.4744 1.74353 40.3688 3.69033 31.1498 7.62285C31.3566 7.22787 31.6252 6.88334 31.8923 6.60152C27.8151 2.54863 22.1663 2.79009 20.9132 3.00848C20.9242 3.03587 23.3399 7.25454 21.691 12.341C23.3487 10.6897 25.2714 9.25683 27.3972 8.02936C26.7798 5.13403 24.0522 3.7588 22.805 3.27301C25.1088 3.7379 28.8004 4.99132 29.6502 8.29533C24.0794 10.9211 20.1023 14.251 18.0531 17.2156C23.9492 6.65125 18.5851 2.19329 18.5851 2.19329C18.5983 2.19618 26.0735 -0.959352 33.1895 5.35747C44.8404 1.10133 60.0113 1.36297 72.0382 4.87239C72.7696 5.08574 73.0404 5.95931 72.5503 6.53305L72.5511 6.53088ZM45.5541 31.0421C45.3569 30.8237 45.131 30.588 44.9073 30.3696C39.8905 31.9423 35.7832 34.1436 33.6582 35.9037C33.2528 35.6154 32.8253 35.1577 32.4736 34.4326C35.547 32.2097 39.555 30.5311 43.7609 29.3576C41.1473 27.2782 37.803 26.0457 34.082 25.9686C28.1676 30.3948 30.3139 38.2447 37.079 41.0456C37.079 41.0456 35.0349 39.3396 35.937 37.7943L35.9392 37.7863C38.0738 34.6957 41.7168 32.5283 45.5534 31.0428L45.5541 31.0421ZM58.7244 5.893C58.6368 5.893 58.5581 5.86057 58.4978 5.80795C58.4448 5.92255 58.4132 6.04941 58.4095 6.18203C58.394 6.71108 58.8193 7.14065 59.3601 7.14065C59.8568 7.14065 60.277 6.77811 60.3535 6.30817C60.5433 6.41556 60.6883 6.59071 60.7523 6.80117C62.5705 6.62963 64.7044 6.48187 66.4563 6.37592C64.3629 5.98814 62.2291 5.69191 60.0798 5.48649C59.7884 5.20899 59.3506 5.14412 58.9761 5.32504C59.0334 5.38558 59.0695 5.46559 59.0695 5.55496C59.0695 5.74164 58.915 5.89372 58.7237 5.89372L58.7244 5.893ZM18.0759 19.8485C26.3089 9.21935 42.5593 6.2433 58.1917 6.8055C58.0681 6.60368 58.0085 6.35718 58.0394 6.09554C58.0739 5.79786 58.2189 5.5355 58.4264 5.34738C41.282 4.08964 23.5835 8.66725 18.0766 19.8493L18.0759 19.8485ZM66.3217 7.39725C64.3166 7.11471 64.2011 8.42362 63.2357 8.66076C65.8839 9.00384 64.463 7.62141 66.3217 7.39725Z" fill="#69B3E7"/>
<path d="M20.9141 3.00559C20.9501 2.9991 20.9898 2.99333 21.0333 2.98685C20.956 2.99766 20.9141 3.00559 20.9141 3.00559Z" fill="#FFC72C"/>
<path d="M21.2548 32.8058C19.7868 30.8842 19.1636 28.4596 18.8987 26.7441C18.5382 26.7924 18.3483 26.8141 17.781 26.8991C18.2321 29.0859 19.3115 31.6266 22.1341 34.1486C21.803 33.6909 21.5094 33.2275 21.2423 32.7626C21.2467 32.777 21.2504 32.7907 21.2555 32.8051L21.2548 32.8058Z" fill="white"/>
<path d="M50.5732 29.4686C52.8138 28.9093 54.9182 28.5554 56.6069 28.355C54.6018 28.4019 52.6151 28.6174 50.6895 28.9554C50.6542 29.132 50.6152 29.3029 50.5732 29.4679V29.4686Z" fill="white"/>
<path d="M44.2988 32.3805C44.2988 32.3805 37.8965 37.8396 37.834 40.407C36.8075 39.4981 36.8392 38.5042 36.8392 38.5042C37.5161 36.3376 44.2996 32.3798 44.2996 32.3798L44.2988 32.3805ZM32.0144 44.3439C31.8827 48.04 32.8106 51.7483 34.8613 55.0408C34.8113 53.1351 35.0592 51.3288 35.5816 49.9486C33.7473 48.5481 32.5383 46.6006 32.0144 44.3439ZM21.691 12.3388C23.3488 10.6875 25.2714 9.25466 27.3972 8.02719C26.7799 5.13113 24.0522 3.75663 22.805 3.27083C21.6998 3.04811 20.9132 3.00558 20.9132 3.00558C20.9243 3.03297 23.3399 7.25164 21.691 12.3381V12.3388ZM18.0752 19.8492C21.3819 17.4311 24.4275 16.5013 27.2611 16.1221C27.6592 15.6046 28.0543 15.1188 28.4222 14.69C28.2478 15.0705 28.0462 15.5362 27.8394 16.0508C28.353 15.9946 28.86 15.9549 29.3604 15.9254C30.1087 14.7527 30.9225 13.6852 31.6245 12.8643C31.1881 13.7414 30.7444 14.7887 30.3699 15.8785C30.8011 15.8634 31.2278 15.8526 31.6495 15.8432C32.5457 14.0384 33.7164 12.3417 34.8267 11.0378C34.1682 12.2826 33.45 14.0305 32.982 15.8137C33.3852 15.8028 33.7833 15.7899 34.1777 15.7697C35.0629 13.3284 36.4904 11.022 38.0282 9.21141C37.0032 11.0587 36.1225 13.3573 35.7457 15.6464C37.0753 15.4958 38.3586 15.2089 39.6021 14.633C40.8228 11.1892 43.9265 9.62802 43.9265 9.62802C42.8044 10.8014 43.0303 12.7158 43.0303 12.7158C47.0934 9.11915 53.2044 7.42102 58.1917 6.80476C42.5594 6.24256 26.3089 9.21862 18.0759 19.8478L18.0752 19.8492ZM20.2422 26.5726C19.7977 26.6266 19.3496 26.6843 18.8978 26.7448C19.1635 28.4603 19.7867 30.8842 21.2539 32.8065C21.2488 32.7907 21.2443 32.7741 21.2392 32.7582C20.2672 30.7977 20.1134 28.4639 20.2414 26.5726H20.2422Z" fill="#FFC72C"/>
<path d="M56.2728 11.6152L55.9285 10.5009C56.3229 10.5722 56.7658 10.6811 57.2183 10.8007L56.2728 11.6152ZM57.7695 10.9434L58.0778 11.9785L58.9556 11.2534C58.5803 11.1611 57.7871 10.9485 57.7687 10.9434H57.7695ZM59.2779 11.3312L59.5832 12.3021L60.3294 11.5366C59.9894 11.4855 59.6377 11.4148 59.2779 11.3312ZM60.6531 11.5799L60.7605 12.3215L61.4802 11.621C61.2719 11.6282 61.0519 11.6274 60.6531 11.5799ZM59.2963 13.456L59.0203 12.5738L58.1175 13.3868C58.9254 13.4863 59.7157 13.5216 60.2918 13.4085L60.1498 12.447L59.2963 13.456ZM57.2125 12.0159L56.0388 13.0351C56.5252 13.1375 57.0822 13.2434 57.6459 13.3241L57.2132 12.0159H57.2125Z" fill="white"/>
</svg>
